<?xml version="1.0" standalone="no"?>
<!DOCTYPE svg PUBLIC "-//W3C//DTD SVG 20010904//EN"
 "http://www.w3.org/TR/2001/REC-SVG-20010904/DTD/svg10.dtd">
<svg version="1.0" xmlns="http://www.w3.org/2000/svg"
 width="1600.000000pt" height="720.000000pt" viewBox="0 0 1600.000000 720.000000"
 preserveAspectRatio="xMidYMid meet">

<g transform="translate(0.000000,720.000000) scale(0.100000,-0.100000)"
fill="#E60023" stroke="none">
<path d="M4986 6084 c-440 -58 -863 -233 -1212 -500 -119 -91 -327 -296 -427
-419 -211 -261 -367 -564 -464 -902 l-37 -128 -4 -500 c-3 -483 -2 -503 18
-595 46 -202 135 -438 232 -620 192 -358 511 -704 852 -924 319 -206 679 -335
1066 -382 169 -20 520 -15 680 11 324 52 678 185 954 359 230 145 494 390 651
601 48 66 92 124 96 129 4 4 657 -323 1451 -727 794 -405 1462 -740 1485 -745
70 -16 154 9 199 60 11 12 51 80 87 151 l67 127 0 133 c0 132 0 133 -27 159
-16 14 -683 359 -1483 768 -800 408 -1457 744 -1459 745 -1 2 9 52 23 112 38
160 55 269 67 431 25 322 -32 719 -150 1042 -81 222 -246 509 -406 708 -85
105 -261 281 -367 367 -337 272 -767 462 -1198 531 -147 23 -547 28 -694 8z
m692 -618 c573 -118 1064 -486 1326 -996 152 -296 218 -569 218 -900 0 -483
-167 -912 -501 -1288 -55 -62 -220 -213 -242 -220 -5 -2 -9 206 -9 547 l0 551
262 2 261 3 -481 419 -482 418 0 359 0 359 -195 0 -195 0 -2 -186 -3 -186
-152 132 c-83 72 -155 132 -158 132 -10 1 -1663 -1435 -1664 -1444 -1 -5 125
-8 279 -8 l280 0 0 -586 0 -586 -37 27 c-276 205 -492 465 -625 752 -187 405
-229 871 -118 1301 161 623 644 1136 1256 1335 118 39 240 67 399 91 17 2 127
3 245 1 182 -3 234 -7 338 -29z"/>
<path d="M5074 5225 c-354 -52 -646 -195 -884 -434 -171 -172 -301 -380 -393
-631 -57 -156 -55 -179 5 -65 310 580 816 980 1404 1110 66 14 124 28 129 30
26 9 -180 1 -261 -10z"/>
<path d="M9073 4951 c-344 -55 -619 -305 -716 -650 -21 -74 -21 -96 -25 -798
l-3 -723 270 0 270 0 3 703 3 702 28 53 c134 255 483 245 606 -17 l26 -56 3
-692 3 -693 264 0 265 0 0 674 c0 647 1 677 20 739 88 285 491 309 619 37 l26
-55 3 -697 2 -698 271 0 270 0 -4 713 c-4 781 -3 764 -67 924 -209 522 -867
707 -1314 370 -38 -29 -75 -56 -81 -61 -9 -6 -28 4 -61 31 -104 87 -222 146
-355 178 -77 19 -254 27 -326 16z"/>
<path d="M14075 4903 c-157 -19 -324 -111 -420 -232 -101 -127 -145 -256 -145
-425 1 -208 52 -338 190 -477 66 -67 102 -94 160 -122 135 -66 148 -67 615
-68 467 0 479 -2 507 -59 22 -44 23 -128 2 -158 -37 -53 -24 -52 -694 -52
l-620 0 0 -265 0 -266 678 3 677 3 80 30 c189 72 326 213 396 412 29 81 37
270 15 373 -46 223 -215 408 -440 483 -57 19 -93 21 -519 26 l-459 6 -23 27
c-26 31 -41 100 -30 147 3 17 20 42 37 56 l30 25 629 0 629 0 0 270 0 270
-632 -1 c-348 -1 -646 -4 -663 -6z"/>
<path d="M12276 4884 c-97 -19 -158 -40 -256 -89 -101 -51 -144 -82 -235 -167
-166 -154 -287 -382 -326 -612 -19 -114 -6 -351 25 -465 83 -299 281 -544 541
-671 197 -96 175 -94 783 -98 l532 -3 0 265 0 265 -497 3 -498 3 -58 27 c-86
40 -144 86 -193 151 -24 33 -44 63 -44 68 0 5 188 9 445 9 l445 0 0 265 0 265
-445 0 c-358 0 -445 3 -445 13 0 26 97 133 158 174 116 78 106 77 650 81 l482
3 0 265 0 264 -497 -1 c-377 -1 -515 -4 -567 -15z"/>
<path d="M620 3820 l0 -1060 265 0 265 0 0 395 0 395 415 0 415 0 0 -395 0
-395 270 0 270 0 0 1060 0 1060 -270 0 -270 0 -2 -397 -3 -398 -410 0 -410 0
-3 398 -2 397 -265 0 -265 0 0 -1060z"/>
</g>
</svg>
